<svg xmlns="http://www.w3.org/2000/svg" version="1.1" width="100%" viewBox="0 0 330 65.34" preserveAspectRatio="none" fill="rgba(255,255,255,1)"><path d="M275.42,351.54c1.21-.89,1.91-.67,2.09.66-1.22.89-1.92.67-2.09-.66Z" transform="translate(-31 -351)"/><path d="M249.07,361.49a15,15,0,0,1,6.42-1.17c-1.51,2.59-4.81,2.23-7.33,2.82l.91-1.65Z" transform="translate(-31 -351)"/><path d="M282.66,364.9c1.2-2.87,4.9-1.91,7.35-2-1.41,2.63-4.9,1.75-7.35,2Z" transform="translate(-31 -351)"/><path d="M207.69,370.55c.38-4.18,5.48-5.1,8.81-4.13-2.05,2.82-5.67,3.31-8.81,4.13Z" transform="translate(-31 -351)"/><path d="M266.83,371.61a5.8,5.8,0,0,1,4.92.15c-2.68,1.71-5.86,2.14-8.95,2.36.18-2.09,2.5-2,4-2.51Z" transform="translate(-31 -351)"/><path d="M196,374.49c2.92-1.63.26,3.28,0,0Z" transform="translate(-31 -351)"/><path d="M241.12,378.52a11.35,11.35,0,0,1,8.46-3.81,42,42,0,0,1-3.76,3.17c.42.6.85,1.19,1.28,1.79l-1.55,2.76a26.22,26.22,0,0,0,8-1.13c-.07.43-.23,1.28-.3,1.71l2.57.84A168,168,0,0,1,240,390.66c-.55,1.52.95,2.09,2.09,2.55,3.26-.71,6.62-.16,9.82-1.22v-2.65l3.13-.16c0,.53,0,1.59-.07,2.13,3.13-1.13,6.44-1.66,9.58-2.74,2.92-1.16,6.49-.84,8.79-3.27-.07.71-.19,2.13-.25,2.84,1.27.14,2.55.25,3.83.32.05-1.25.11-2.49.18-3.74,1.36.31,2.73.63,4.12.91l2.79-.54-1.28,1c-1.32.4-2.65.77-4,1.08.41,1.11.86,2.21,1.34,3.3l-2.07-.2.08,3.09c3.1,0,6.19-.06,9.28-.2l-.4,1.64c1.78.55,2.55,2.27,3.53,3.69,3.83-1.64,7.63.1,11.57-.07,0,1.72,0,3.43,0,5.15,2.13-.47,4.24-1.05,6.36-1.58a4.39,4.39,0,0,1,3-2.09c.95-.69,1.8-1.72,3.1-1.62.29.55.89,1.66,1.19,2.21a14.11,14.11,0,0,1,6,2.29c1.62-1.63,3.72-1.34,5.77-.93.36.35,1.06,1,1.41,1.41,1.8,0,3.6,0,5.4,0,2.18-2.06,4.92,0,7.28.56l.83,2.72,2.76.56,3.49-1.66-.63,1.23a6,6,0,0,1,3.79.47l1.56-1.66,1.84,2.37c1.07-1.19,2.08-2.43,3.08-3.69l2.73.25v11.93H31v-8.93l4.18-1.64c-.06.62-.17,1.87-.23,2.49l3.48.05c.57-1,1.16-2,1.75-3,.66.83,1.32,1.66,2,2.48,1-1.09,2-2.22,3-3.37,1.49-.18,3-.39,4.46-.64.51-2.17,1.29-4.31,1.17-6.57,1-.43,2.07-.85,3.11-1.26l.24,2.75c1.37-.79,2.7-1.64,4-2.47.32.53,1,1.59,1.31,2.12A47.42,47.42,0,0,0,67,396.05a16.74,16.74,0,0,0-1-4.68l1.52-.52a21.5,21.5,0,0,0,2.52,4.79c3.87-2.26,8.57-3.75,11-7.78,0,.69-.15,2.08-.19,2.77,1.42-.25,2.85-.45,4.29-.57-2.39,1.71-5.72.37-8,2.3a2,2,0,0,0,0,3.68c-.08,1.07-.15,2.15-.23,3.23l2.37-.65L79,400.79c3.17-1.38,5.34-4.75,9-4.84,0-.6-.15-1.8-.21-2.4a26.51,26.51,0,0,0,7.78-4.36c.44,2,1,4,1.55,6,1.73,0,3.45.07,5.18.1a3.46,3.46,0,0,0-2.3-3.09l2.69-.86c-.9-2.29,1.19-2.78,2.86-3.37.49.69,1.49,2.06,2,2.75q2-1,3.9-2.18c1.39-.47,2.77-.94,4.17-1.39.12-3.77,4.26-2.28,6.67-2.41-1.68.19-3.36.32-5,.46.14,3,2.73,1.78,4.41,1.91l.18.34c-1.17.11-2.35.22-3.52.35a7.93,7.93,0,0,1-2.17,5.21c-.07-.67-.22-2-.29-2.67-2,.05-3.93.09-5.9.1v2.12l-3-.11c.05.53.17,1.58.22,2.11l2.39,1.79,2.14-.6c1.74.65,5.41-.52,4.51,2.6h4.33c.23-2.9,3.32-2.26,5.35-2,.14-1.5.31-3,.51-4.48,1.6.37,3.21.73,4.82,1.08l-3.15.43c-.48,1.31-1,2.63-1.38,4,5.42,0,10.85-.63,16.24.09l.12-2.89,1.49,2.94c1.88-1.32,3.9-2.44,6.28-2.31.55.87,1.11,1.74,1.67,2.6-1.49-.15-3-.28-4.49-.42,0,.68,0,2,0,2.72,1.24.33,2.48.72,3.7,1.16l1.51,0a16.26,16.26,0,0,1,4.86-1.56c-.14-1.51-.3-3-.52-4.52a10.34,10.34,0,0,1,3.33-2.2c.05-1.46.12-2.91.21-4.36,1.41.38,2.84.76,4.23,1.24l-3.85-.2c.74,1,1.53,2,2.34,3l3.63-1.26-2.73,1.76c.91,1.82,2,3.57,2.81,5.44a12.57,12.57,0,0,1,7.49-.76c.56-1.27,1.12-1,1.53.54l4.41.07.13-1.58,2.24.44c1.43-.69,2.92-1.27,4.4-1.87.09.73.28,2.19.37,2.91l2.4.84c-.16.81-.49,2.43-.66,3.24H194c0-.59-.12-1.76-.17-2.34l3.62,1,1.8-2.43c-.26,1.79-.62,3.56-1,5.32q1.71-1.17,3.33-2.49l2.35-.26c0-.78,0-2.32.06-3.1l-1.57,1,.31-1.19L199.2,396l3.87,1-.08-1.51-3.31-.33a9,9,0,0,1,6.85-1.7c.7-1.72-.53-3.07-1.65-4.22,1.67.85,3.23,1.9,4.88,2.81a4.11,4.11,0,0,0-3.08,4.3c1.87-.09,3.75-.21,5.64-.23,1.19,2.82,3.15-.1,4.65-.69q-.3-1.38-.51-2.76a62,62,0,0,1,7,2.81,11.28,11.28,0,0,0,4-3.68c2.8-2.21,5.53-4.54,8.15-7l-2.53-.26c.95-.5,1.9-1,2.86-1.49,0-.62-.08-1.85-.1-2.46,1.74-.7,3.48-1.4,5.24-2.06Z" transform="translate(-31 -351)"/><path d="M224.78,378.53a20.92,20.92,0,0,1,5-2.88l.51,1.49a24.44,24.44,0,0,1-5.49,1.39Z" transform="translate(-31 -351)"/><path d="M263.84,378.63c3.08-.55,5.68-2.38,8.53-3.57-.1,1.74-.27,3.47-.24,5.21l-1.16.22c0-.57,0-1.71,0-2.28-2.65-.47-4.87,1.38-3.91,4.13l-1.31,0c.07-.5.2-1.51.27-2-2,.1-4,.17-6,.08a9.17,9.17,0,0,1,3.81-1.79Z" transform="translate(-31 -351)"/><path d="M99.18,376.36c3-1.3-.22,3.36,0,0Z" transform="translate(-31 -351)"/><path d="M116.72,380c-.11-1.3-.45-3.65,1.32-3.95,2.52.55.22,3.78-1.32,3.95Z" transform="translate(-31 -351)"/><path d="M104.08,381.55c-2.44.41-3.4-2.62-.89-3.26l2,2.83-.61,1.37c1.75.21,4,0,3.75-2.32,2.22-.68,4.47-1.24,6.7-1.88-.83,1-1.66,2.08-2.43,3.16l-2,.26c-2,1.6-4.67,1.33-7,2l.57-2.15Z" transform="translate(-31 -351)"/><path d="M324.12,380.12c.37-1.23,1.19-1.42,2.47-.57-.4,1.22-1.22,1.41-2.47.57Z" transform="translate(-31 -351)"/><path d="M82.11,382.19c-.34-1.3,1.77-2.24,2.76-1.65.3,1.24-1.78,2.25-2.76,1.65Z" transform="translate(-31 -351)"/><polygon points="107.19 29.5 107.86 29.52 107.85 30.18 107.18 30.18 107.19 29.5 107.19 29.5"/><path d="M190.11,380.45c2.84-1.78.43,3.29,0,0Z" transform="translate(-31 -351)"/><path d="M225.11,382c1.71,0,2.49.9,2.08,2.63,1.8-.44,3.24-1.65,4.93-2.37-.72,3.61-4.73,4.33-7.44,5.94.19-2.06.32-4.13.43-6.2Z" transform="translate(-31 -351)"/><path d="M74.59,387.76c.67-1.58,1.24-3.62,3.27-3.83-.69,2-.94,4.29-2.44,5.94-1.36-.06-3,.17-3.94-1.1l3.11-1Z" transform="translate(-31 -351)"/><path d="M124.11,384.49c2.84,1.06,6,.78,8.78,1.85l2.56-.52c-.18.78-.36,1.56-.53,2.34l-3.43.82a32.41,32.41,0,0,0-1.15-3.17c-2.21.24-4.5.24-6.23-1.32Z" transform="translate(-31 -351)"/><path d="M306.29,386.17c1.11-.57,2.26-1.08,3.39-1.62l-1,2.75,3.23,0,.2,2.09-4.4-.07c.29.9.59,1.79.91,2.68l-2.94.36c1.36-2.94-1.53-4.63-4.12-3.71a10.68,10.68,0,0,1-4.17,1c1-1.44,2.21-2.66,4.06-2.71,1.44-1.13,3.07-1.78,4.8-.76Z" transform="translate(-31 -351)"/><path d="M109.24,385.53c1.17-.9,1.87-.69,2.1.62-1.19.93-1.88.73-2.1-.62Z" transform="translate(-31 -351)"/><path d="M164.68,387.68c.54-1.46,2.95-.62,3.91.07l-.06.35c-1.08.71-3.16.92-3.85-.42Z" transform="translate(-31 -351)"/><path d="M67.1,388.8c-.08-1.48,2.43-2.38,3.55-1.54,0,1.53-2.41,1.85-3.55,1.54Z" transform="translate(-31 -351)"/><path d="M169.24,389.42c1.51-.32,3.27.55,4.51,1.38-.44,1.85-5.18.54-4.51-1.38Z" transform="translate(-31 -351)"/><path d="M216.48,389.45c3-1.56.24,3.23,0,0Z" transform="translate(-31 -351)"/><path d="M296.92,392.93c.79-1.75,2.82-1.48,4.41-1.55-.73,1.95-2.82,1.46-4.41,1.55Z" transform="translate(-31 -351)"/><path d="M309.91,393a4.73,4.73,0,0,1,5.36,0,6.08,6.08,0,0,1-5.36,0Z" transform="translate(-31 -351)"/><path d="M190.82,393.34H192v1.44a47.93,47.93,0,0,1,5.17,1.08,12.81,12.81,0,0,1-5.26.47c-.37-1-.73-2-1.09-3Z" transform="translate(-31 -351)"/><path d="M302.67,397.29c-.09-3.19,3.24.39,2.94,1.75a2.69,2.69,0,0,1-2.65-.94l-.29-.81Z" transform="translate(-31 -351)"/><path d="M322,397.55c4.56-2.18,8.87.88,13.31,1.65-2,2.41-5.52.93-7.78-.33-1.87-.35-3.71-.8-5.53-1.32Z" transform="translate(-31 -351)"/><path d="M343.24,397.31c2.13-.07,4.57-.12,6.2,1.5-2.14,0-4.56.19-6.2-1.5Z" transform="translate(-31 -351)"/></svg>